# MagicaVoxel @ Ephtracy

# group
g target

# material
mtllib target.mtl
usemtl palette

# normals
vn -1 0 0
vn 1 0 0
vn 0 0 1
vn 0 0 -1
vn 0 -1 0
vn 0 1 0

# texcoords
vt 0.845703 0.5
vt 0.958984 0.5
vt 0.970703 0.5

# verts
v -3 11 3
v -3 11 -3
v -3 12 2
v -3 12 -2
v -3 13 1
v -3 13 -1
v -3 15 1
v -3 15 -1
v -3 16 2
v -3 16 -2
v -3 17 3
v -3 17 -3
v -1 0 1
v -1 0 -1
v -1 11 1
v -1 11 -1
v 1 0 1
v 1 0 -1
v 1 11 1
v 1 11 -1
v 3 11 3
v 3 11 -3
v 3 12 2
v 3 12 -2
v 3 13 1
v 3 13 -1
v 3 15 1
v 3 15 -1
v 3 16 2
v 3 16 -2
v 3 17 3
v 3 17 -3
v -3 11 3
v -3 17 3
v -2 12 3
v -2 16 3
v -1 13 3
v -1 15 3
v 1 13 3
v 1 15 3
v 2 12 3
v 2 16 3
v 3 11 3
v 3 17 3
v -1 0 1
v -1 11 1
v 1 0 1
v 1 11 1
v -1 0 -1
v -1 11 -1
v 1 0 -1
v 1 11 -1
v -3 11 -3
v -3 17 -3
v -2 12 -3
v -2 16 -3
v -1 13 -3
v -1 15 -3
v 1 13 -3
v 1 15 -3
v 2 12 -3
v 2 16 -3
v 3 11 -3
v 3 17 -3
v -1 0 1
v 1 0 1
v -1 0 -1
v 1 0 -1
v -3 11 3
v 3 11 3
v -2 11 2
v 2 11 2
v -1 11 1
v 1 11 1
v -1 11 -1
v 1 11 -1
v -2 11 -2
v 2 11 -2
v -3 11 -3
v 3 11 -3
v -3 17 3
v 3 17 3
v -2 17 2
v 2 17 2
v -1 17 1
v 1 17 1
v -1 17 -1
v 1 17 -1
v -2 17 -2
v 2 17 -2
v -3 17 -3
v 3 17 -3

# faces
f 3/2/1 2/2/1 1/2/1
f 4/2/1 2/2/1 3/2/1
f 5/1/1 4/1/1 3/1/1
f 6/1/1 4/1/1 5/1/1
f 7/1/1 5/1/1 3/1/1
f 7/2/1 6/2/1 5/2/1
f 8/1/1 4/1/1 6/1/1
f 8/2/1 6/2/1 7/2/1
f 9/2/1 3/2/1 1/2/1
f 9/1/1 7/1/1 3/1/1
f 9/1/1 8/1/1 7/1/1
f 10/1/1 4/1/1 8/1/1
f 10/1/1 8/1/1 9/1/1
f 10/2/1 2/2/1 4/2/1
f 11/2/1 9/2/1 1/2/1
f 11/2/1 10/2/1 9/2/1
f 12/2/1 2/2/1 10/2/1
f 12/2/1 10/2/1 11/2/1
f 15/3/1 14/3/1 13/3/1
f 16/3/1 14/3/1 15/3/1
f 17/3/2 18/3/2 19/3/2
f 19/3/2 18/3/2 20/3/2
f 21/2/2 22/2/2 23/2/2
f 23/2/2 22/2/2 24/2/2
f 23/1/2 24/1/2 25/1/2
f 25/1/2 24/1/2 26/1/2
f 23/1/2 25/1/2 27/1/2
f 25/2/2 26/2/2 27/2/2
f 26/1/2 24/1/2 28/1/2
f 27/2/2 26/2/2 28/2/2
f 21/2/2 23/2/2 29/2/2
f 23/1/2 27/1/2 29/1/2
f 27/1/2 28/1/2 29/1/2
f 28/1/2 24/1/2 30/1/2
f 29/1/2 28/1/2 30/1/2
f 24/2/2 22/2/2 30/2/2
f 21/2/2 29/2/2 31/2/2
f 29/2/2 30/2/2 31/2/2
f 30/2/2 22/2/2 32/2/2
f 31/2/2 30/2/2 32/2/2
f 35/2/3 34/2/3 33/2/3
f 36/2/3 34/2/3 35/2/3
f 37/1/3 36/1/3 35/1/3
f 38/1/3 36/1/3 37/1/3
f 39/1/3 37/1/3 35/1/3
f 39/2/3 38/2/3 37/2/3
f 40/1/3 36/1/3 38/1/3
f 40/2/3 38/2/3 39/2/3
f 41/2/3 35/2/3 33/2/3
f 41/1/3 39/1/3 35/1/3
f 41/1/3 40/1/3 39/1/3
f 42/1/3 36/1/3 40/1/3
f 42/1/3 40/1/3 41/1/3
f 42/2/3 34/2/3 36/2/3
f 43/2/3 41/2/3 33/2/3
f 43/2/3 42/2/3 41/2/3
f 44/2/3 34/2/3 42/2/3
f 44/2/3 42/2/3 43/2/3
f 47/3/3 46/3/3 45/3/3
f 48/3/3 46/3/3 47/3/3
f 49/3/4 50/3/4 51/3/4
f 51/3/4 50/3/4 52/3/4
f 53/2/4 54/2/4 55/2/4
f 55/2/4 54/2/4 56/2/4
f 55/1/4 56/1/4 57/1/4
f 57/1/4 56/1/4 58/1/4
f 55/1/4 57/1/4 59/1/4
f 57/2/4 58/2/4 59/2/4
f 58/1/4 56/1/4 60/1/4
f 59/2/4 58/2/4 60/2/4
f 53/2/4 55/2/4 61/2/4
f 55/1/4 59/1/4 61/1/4
f 59/1/4 60/1/4 61/1/4
f 60/1/4 56/1/4 62/1/4
f 61/1/4 60/1/4 62/1/4
f 56/2/4 54/2/4 62/2/4
f 53/2/4 61/2/4 63/2/4
f 61/2/4 62/2/4 63/2/4
f 62/2/4 54/2/4 64/2/4
f 63/2/4 62/2/4 64/2/4
f 67/3/5 66/3/5 65/3/5
f 68/3/5 66/3/5 67/3/5
f 71/2/5 70/2/5 69/2/5
f 72/2/5 70/2/5 71/2/5
f 73/3/5 72/3/5 71/3/5
f 74/3/5 72/3/5 73/3/5
f 75/3/5 73/3/5 71/3/5
f 76/3/5 72/3/5 74/3/5
f 77/2/5 71/2/5 69/2/5
f 77/3/5 76/3/5 75/3/5
f 77/3/5 75/3/5 71/3/5
f 78/3/5 72/3/5 76/3/5
f 78/3/5 76/3/5 77/3/5
f 78/2/5 70/2/5 72/2/5
f 79/2/5 77/2/5 69/2/5
f 79/2/5 78/2/5 77/2/5
f 80/2/5 70/2/5 78/2/5
f 80/2/5 78/2/5 79/2/5
f 81/2/6 82/2/6 83/2/6
f 83/2/6 82/2/6 84/2/6
f 83/1/6 84/1/6 85/1/6
f 85/1/6 84/1/6 86/1/6
f 83/1/6 85/1/6 87/1/6
f 85/2/6 86/2/6 87/2/6
f 86/1/6 84/1/6 88/1/6
f 87/2/6 86/2/6 88/2/6
f 81/2/6 83/2/6 89/2/6
f 83/1/6 87/1/6 89/1/6
f 87/1/6 88/1/6 89/1/6
f 88/1/6 84/1/6 90/1/6
f 89/1/6 88/1/6 90/1/6
f 84/2/6 82/2/6 90/2/6
f 81/2/6 89/2/6 91/2/6
f 89/2/6 90/2/6 91/2/6
f 90/2/6 82/2/6 92/2/6
f 91/2/6 90/2/6 92/2/6
