# MagicaVoxel @ Ephtracy

# group
g Enemy_Test_01

# material
mtllib Enemy_Test_01.mtl
usemtl palette

# normals
vn -1 0 0
vn 1 0 0
vn 0 0 1
vn 0 0 -1
vn 0 -1 0
vn 0 1 0

# texcoords
vt 0.962891 0.5
vt 0.994141 0.5

# verts
v -4 3 -0
v -4 3 -2
v -4 8 -0
v -4 8 -2
v -3 0 1
v -3 0 -3
v -3 3 -0
v -3 3 -2
v -3 8 -0
v -3 8 -2
v -3 10 1
v -3 10 -3
v 1 0 1
v 1 0 -3
v 1 3 1
v 1 3 -3
v -1 0 1
v -1 0 -3
v -1 3 1
v -1 3 -3
v 3 0 1
v 3 0 -3
v 3 3 -0
v 3 3 -2
v 3 8 -0
v 3 8 -2
v 3 10 1
v 3 10 -3
v 4 3 -0
v 4 3 -2
v 4 8 -0
v 4 8 -2
v -3 0 1
v -3 10 1
v -2 7 1
v -2 9 1
v -1 0 1
v -1 3 1
v -1 4 1
v -1 6 1
v -1 7 1
v -1 9 1
v 1 0 1
v 1 3 1
v 1 4 1
v 1 6 1
v 1 7 1
v 1 9 1
v 2 7 1
v 2 9 1
v 3 0 1
v 3 10 1
v -4 3 -0
v -4 8 -0
v -3 3 -0
v -3 8 -0
v 3 3 -0
v 3 8 -0
v 4 3 -0
v 4 8 -0
v -4 3 -2
v -4 8 -2
v -3 3 -2
v -3 8 -2
v 3 3 -2
v 3 8 -2
v 4 3 -2
v 4 8 -2
v -3 0 -3
v -3 10 -3
v -1 0 -3
v -1 3 -3
v 1 0 -3
v 1 3 -3
v 3 0 -3
v 3 10 -3
v -3 0 1
v -1 0 1
v 1 0 1
v 3 0 1
v -3 0 -3
v -1 0 -3
v 1 0 -3
v 3 0 -3
v -1 3 1
v 1 3 1
v -4 3 -0
v -3 3 -0
v 3 3 -0
v 4 3 -0
v -4 3 -2
v -3 3 -2
v 3 3 -2
v 4 3 -2
v -1 3 -3
v 1 3 -3
v -4 8 -0
v -3 8 -0
v 3 8 -0
v 4 8 -0
v -4 8 -2
v -3 8 -2
v 3 8 -2
v 4 8 -2
v -3 10 1
v 3 10 1
v -3 10 -3
v 3 10 -3

# faces
f 3/1/1 2/1/1 1/1/1
f 4/1/1 2/1/1 3/1/1
f 7/1/1 6/1/1 5/1/1
f 8/1/1 6/1/1 7/1/1
f 9/1/1 7/1/1 5/1/1
f 10/1/1 6/1/1 8/1/1
f 11/1/1 9/1/1 5/1/1
f 11/1/1 10/1/1 9/1/1
f 12/1/1 6/1/1 10/1/1
f 12/1/1 10/1/1 11/1/1
f 15/1/1 14/1/1 13/1/1
f 16/1/1 14/1/1 15/1/1
f 17/1/2 18/1/2 19/1/2
f 19/1/2 18/1/2 20/1/2
f 21/1/2 22/1/2 23/1/2
f 23/1/2 22/1/2 24/1/2
f 21/1/2 23/1/2 25/1/2
f 24/1/2 22/1/2 26/1/2
f 21/1/2 25/1/2 27/1/2
f 25/1/2 26/1/2 27/1/2
f 26/1/2 22/1/2 28/1/2
f 27/1/2 26/1/2 28/1/2
f 29/1/2 30/1/2 31/1/2
f 31/1/2 30/1/2 32/1/2
f 35/1/3 34/1/3 33/1/3
f 36/1/3 34/1/3 35/1/3
f 37/1/3 35/1/3 33/1/3
f 38/1/3 35/1/3 37/1/3
f 39/1/3 35/1/3 38/1/3
f 40/1/3 35/1/3 39/1/3
f 41/2/3 36/2/3 35/2/3
f 41/1/3 35/1/3 40/1/3
f 42/1/3 34/1/3 36/1/3
f 42/2/3 36/2/3 41/2/3
f 44/1/3 39/1/3 38/1/3
f 45/2/3 40/2/3 39/2/3
f 45/1/3 39/1/3 44/1/3
f 46/1/3 41/1/3 40/1/3
f 46/2/3 40/2/3 45/2/3
f 46/1/3 42/1/3 41/1/3
f 47/1/3 42/1/3 46/1/3
f 48/1/3 34/1/3 42/1/3
f 48/1/3 42/1/3 47/1/3
f 49/1/3 45/1/3 44/1/3
f 49/1/3 44/1/3 43/1/3
f 49/2/3 48/2/3 47/2/3
f 49/1/3 46/1/3 45/1/3
f 49/1/3 47/1/3 46/1/3
f 50/1/3 34/1/3 48/1/3
f 50/2/3 48/2/3 49/2/3
f 51/1/3 49/1/3 43/1/3
f 51/1/3 50/1/3 49/1/3
f 52/1/3 34/1/3 50/1/3
f 52/1/3 50/1/3 51/1/3
f 55/1/3 54/1/3 53/1/3
f 56/1/3 54/1/3 55/1/3
f 59/1/3 58/1/3 57/1/3
f 60/1/3 58/1/3 59/1/3
f 61/1/4 62/1/4 63/1/4
f 63/1/4 62/1/4 64/1/4
f 65/1/4 66/1/4 67/1/4
f 67/1/4 66/1/4 68/1/4
f 69/1/4 70/1/4 71/1/4
f 71/1/4 70/1/4 72/1/4
f 72/1/4 70/1/4 74/1/4
f 73/1/4 74/1/4 75/1/4
f 74/1/4 70/1/4 76/1/4
f 75/1/4 74/1/4 76/1/4
f 81/1/5 78/1/5 77/1/5
f 82/1/5 78/1/5 81/1/5
f 83/1/5 80/1/5 79/1/5
f 84/1/5 80/1/5 83/1/5
f 91/1/5 88/1/5 87/1/5
f 92/1/5 88/1/5 91/1/5
f 93/1/5 90/1/5 89/1/5
f 94/1/5 90/1/5 93/1/5
f 95/1/5 86/1/5 85/1/5
f 96/1/5 86/1/5 95/1/5
f 97/1/6 98/1/6 101/1/6
f 101/1/6 98/1/6 102/1/6
f 99/1/6 100/1/6 103/1/6
f 103/1/6 100/1/6 104/1/6
f 105/1/6 106/1/6 107/1/6
f 107/1/6 106/1/6 108/1/6
